<svg id="Layer_1" data-name="Layer 1" xmlns="http://www.w3.org/2000/svg" viewBox="0 0 24 24"><defs><style>.cls-1{fill:#231f20;}.cls-1,.cls-3,.cls-4{stroke:#231f20;stroke-width:2px;}.cls-1,.cls-3{stroke-miterlimit:10;}.cls-2,.cls-3,.cls-4{fill:none;}.cls-4{stroke-linecap:round;stroke-linejoin:round;}</style></defs><path class="cls-1" d="M5.21,7.5C2.74,8,2.79,6,2,4.87,2,4.87,5,4.76,5.21,7.5Z"/><polyline class="cls-2" points="1.9 17.62 1.59 16.91 2.69 16.48 2.99 17.17"/><polyline class="cls-3" points="1.9 17.62 1.59 16.91 2.69 16.48 2.99 17.17"/><polyline class="cls-3" points="10.94 17.67 11.02 17.19 9.95 16.75 9.65 17.21"/><polyline class="cls-3" points="20.24 17.71 19.86 17.34 19.15 17.76 19.27 18.36"/><polyline class="cls-3" points="23.03 12.75 22.36 13.18 22.31 13.67 23.03 13.86"/><polyline class="cls-3" points="18.76 8.13 18.83 8.94 19.32 9.04 19.62 8.34"/><path class="cls-3" d="M0,18.22c1.62,0,3.4-2.15,7.36-1.6S13.43,19.83,17.45,19c4.24-.75,7.47-5.3,4.32-9.17-4.21-4.29-9.43,3.88-16.56-2.3"/><path class="cls-4" d="M11.54,12.79c.43-1.4.74-2.57,1-3.53,2-9-4.63-.64-6.08,3.6"/></svg>